# xmcd
#
# Track frame offsets: 
#        150
#        16604
#        29301
#        43636
#        54262
#        68109
#        87785
#        101727
#        117114
#        132140
#
# Disc length: 1996 seconds
#
# Revision: 0
# Processed by: cddbd v1.5.2PL0 Copyright (c) Steve Scherf et al.
# Submitted via: ExactAudioCopy v0.99pb3
#
DISCID=7207ca0a
DTITLE=Various Artist - Breaking For The Holidays
DYEAR=2007
DGENRE=Christmas/Holiday
TTITLE0=Vonzell Solomon - It's Gonna Be A Cold Cold Christmas
TTITLE1=The Demolition String Band - I Saw Mommy Kissin' Santa Claus
TTITLE2=Chaka Khan - Do You Hear Waht I Hear
TTITLE3=Eve Nelson - Home For The Holidays
TTITLE4=Miz Metro - Jingle Bells
TTITLE5=Ben Jelen - River
TTITLE6=Karine Hannah - New Year's Eve At Home
TTITLE7=Carla - Feels Like Christmas
TTITLE8=Jill Gioia - Silent Night
TTITLE9=Sandra Bernhard featuring Sussan Seyhim - Miracle Of Lights
EXTD=
EXTT0=
EXTT1=
EXTT2=
EXTT3=
EXTT4=
EXTT5=
EXTT6=
EXTT7=
EXTT8=
EXTT9=
PLAYORDER=
